<svg width="16" height="16" viewBox="0 0 16 16" fill="none" xmlns="http://www.w3.org/2000/svg">
<path d="M15.293 10.388C15.2914 9.90825 15.1459 9.44002 14.8752 9.04388C14.6046 8.64775 14.2213 8.34193 13.775 8.16601L15.269 2.573C15.3001 2.45389 15.3033 2.32921 15.2783 2.20866C15.2533 2.08812 15.2009 1.97496 15.125 1.878C15.0474 1.78718 14.9505 1.71489 14.8413 1.66644C14.7321 1.61799 14.6134 1.5946 14.494 1.598H3.547L3.283 0.591005C3.23696 0.420885 3.13603 0.270731 2.99589 0.163862C2.85575 0.0569932 2.68424 -0.000607979 2.508 4.83967e-06H0.910004V1.598H1.893L3.875 8.998C3.92222 9.17199 4.02683 9.32493 4.17185 9.43202C4.31688 9.53911 4.49383 9.59407 4.674 9.58801H12.896C13.1032 9.59533 13.2994 9.68277 13.4433 9.83191C13.5873 9.98104 13.6677 10.1802 13.6677 10.3875C13.6677 10.5948 13.5873 10.794 13.4433 10.9431C13.2994 11.0922 13.1032 11.1797 12.896 11.187H2.508C2.39971 11.1816 2.29145 11.1982 2.1898 11.2359C2.08814 11.2736 1.99521 11.3316 1.91665 11.4064C1.83809 11.4811 1.77554 11.571 1.7328 11.6706C1.69006 11.7703 1.66802 11.8776 1.66802 11.986C1.66802 12.0944 1.69006 12.2017 1.7328 12.3014C1.77554 12.401 1.83809 12.4909 1.91665 12.5657C1.99521 12.6404 2.08814 12.6984 2.1898 12.7361C2.29145 12.7738 2.39971 12.7904 2.508 12.785H3.451C3.31977 13.147 3.27768 13.5354 3.32831 13.9171C3.37895 14.2988 3.52081 14.6628 3.74188 14.978C3.96296 15.2933 4.25675 15.5507 4.59838 15.7284C4.94001 15.9061 5.31942 15.9989 5.7045 15.9989C6.08959 15.9989 6.469 15.9061 6.81063 15.7284C7.15226 15.5507 7.44605 15.2933 7.66712 14.978C7.8882 14.6628 8.03006 14.2988 8.08069 13.9171C8.13133 13.5354 8.08924 13.147 7.958 12.785H9.843C9.70545 13.1636 9.66551 13.5707 9.72688 13.9688C9.78825 14.3669 9.94895 14.7431 10.1941 15.0627C10.4393 15.3823 10.7611 15.6349 11.1297 15.7973C11.4983 15.9596 11.9019 16.0265 12.3032 15.9916C12.7045 15.9568 13.0905 15.8214 13.4257 15.5979C13.7608 15.3745 14.0342 15.0702 14.2206 14.7131C14.4071 14.3561 14.5006 13.9578 14.4924 13.5551C14.4842 13.1524 14.3747 12.7582 14.174 12.409C14.5159 12.1938 14.7978 11.8957 14.9936 11.5424C15.1894 11.189 15.2917 10.792 15.293 10.388ZM12.17 7.99H5.305L3.978 3.196H13.455L12.17 7.991V7.99ZM5.705 14.382C5.59671 14.3874 5.48845 14.3708 5.3868 14.3331C5.28514 14.2954 5.19221 14.2374 5.11365 14.1627C5.03509 14.0879 4.97254 13.998 4.9298 13.8984C4.88706 13.7987 4.86502 13.6914 4.86502 13.583C4.86502 13.4746 4.88706 13.3673 4.9298 13.2676C4.97254 13.168 5.03509 13.0781 5.11365 13.0034C5.19221 12.9286 5.28514 12.8706 5.3868 12.8329C5.48845 12.7952 5.59671 12.7786 5.705 12.784C5.91 12.7943 6.10321 12.8829 6.24467 13.0316C6.38613 13.1804 6.46502 13.3778 6.46502 13.583C6.46502 13.7883 6.38613 13.9857 6.24467 14.1344C6.10321 14.2831 5.91 14.3717 5.705 14.382ZM12.098 14.382C11.9897 14.3874 11.8815 14.3708 11.7798 14.3331C11.6781 14.2954 11.5852 14.2374 11.5066 14.1627C11.4281 14.0879 11.3655 13.998 11.3228 13.8984C11.2801 13.7987 11.258 13.6914 11.258 13.583C11.258 13.4746 11.2801 13.3673 11.3228 13.2676C11.3655 13.168 11.4281 13.0781 11.5066 13.0034C11.5852 12.9286 11.6781 12.8706 11.7798 12.8329C11.8815 12.7952 11.9897 12.7786 12.098 12.784C12.303 12.7943 12.4962 12.8829 12.6377 13.0316C12.7791 13.1804 12.858 13.3778 12.858 13.583C12.858 13.7883 12.7791 13.9857 12.6377 14.1344C12.4962 14.2831 12.303 14.3717 12.098 14.382Z" fill="white"/>
</svg>
